<svg width="47" height="47" viewBox="0 0 47 47" fill="none" xmlns="http://www.w3.org/2000/svg">
<path d="M23.0502 2.97422C22.6096 3.22207 22.5912 3.35977 22.582 6.07695C22.582 7.72012 22.6187 8.70234 22.683 8.84004C22.7932 9.08789 23.2154 9.36328 23.4908 9.36328C23.7937 9.36328 24.1059 9.17969 24.2619 8.9043C24.3996 8.68398 24.418 8.3168 24.418 6.11367C24.418 4.35117 24.3812 3.51582 24.3078 3.35059C24.1059 2.90996 23.5 2.72637 23.0502 2.97422Z" fill="url(#paint0_linear_0_126)"/>
<path d="M14.3111 5.86579C13.8154 6.3615 13.8797 6.55427 15.3393 8.86755C16.0553 9.99665 16.7437 11.0156 16.8723 11.1166C17.2027 11.3736 17.7719 11.3093 18.0564 10.9697C18.4695 10.4924 18.3869 10.2629 16.9732 8.02302C16.2664 6.89392 15.5779 5.88415 15.4494 5.78318C15.1006 5.50779 14.6416 5.5445 14.3111 5.86579Z" fill="url(#paint1_linear_0_126)"/>
<path d="M31.5506 5.78318C31.4221 5.88415 30.7336 6.89392 30.0268 8.02302C28.6131 10.2629 28.5305 10.4924 28.9436 10.9697C29.2281 11.3093 29.7973 11.3736 30.1277 11.1166C30.2562 11.0156 30.9447 9.99665 31.6607 8.86755C32.7164 7.18767 32.9551 6.75622 32.9551 6.47165C32.9551 5.76482 32.1105 5.34255 31.5506 5.78318Z" fill="url(#paint2_linear_0_126)"/>
<path d="M8.63809 10.9146C8.34434 11.0156 8.00469 11.2268 7.80273 11.4379C7.45391 11.7959 0.367186 24.1885 0.119335 24.877C-0.0275403 25.29 -0.0275403 25.8133 0.110155 26.2723C0.312108 26.9424 0.807811 27.3738 2.46016 28.2918C3.92891 29.1088 4.0207 29.1455 4.63574 29.173C5.20488 29.2006 5.34258 29.173 5.7832 28.9436C6.23301 28.7049 6.61855 28.3102 6.93984 27.7594C7.03164 27.6033 7.05918 27.6033 7.44473 27.8328C7.96797 28.1449 8.62891 28.7141 8.62891 28.8609C8.62891 28.9252 8.49121 29.2189 8.33516 29.5219C8.05976 30.0176 8.03223 30.1277 8.03223 30.8896C8.03223 31.5414 8.07812 31.8076 8.23418 32.1473C8.61055 32.9734 9.51934 33.7354 10.3271 33.9098C10.5934 33.9648 10.6117 34.0016 10.7127 34.5982C10.832 35.3785 11.1258 36.0027 11.5756 36.4525C11.952 36.8289 12.6221 37.2053 13.1086 37.3154C13.384 37.3705 13.4023 37.398 13.4023 37.7652C13.4023 39.032 14.3295 40.2438 15.6055 40.6293L16.1104 40.7762L16.1287 41.2719C16.1654 42.3092 16.9641 43.4475 17.9738 43.9064C18.3043 44.0533 18.5889 44.0992 19.1855 44.1084C20.2045 44.1084 20.5809 43.9248 22.2332 42.5846L23.5 41.5656L24.1242 42.0705C25.1615 42.9059 25.4186 43.0068 26.4834 43.0068C27.3279 43.0068 27.4381 42.9885 27.8879 42.7314C28.5121 42.3918 29.1455 41.6941 29.3475 41.1342L29.4943 40.7027L30.4215 40.7119C31.2293 40.7119 31.4129 40.6844 31.8076 40.4824C32.799 39.9959 33.4875 38.9953 33.5793 37.9396C33.616 37.3889 33.6344 37.3705 33.9098 37.3063C34.3779 37.2053 35.048 36.8289 35.4244 36.4525C35.8834 35.9936 36.1588 35.3877 36.2873 34.6166L36.3791 33.9832L36.7555 33.873C37.3797 33.6895 37.7652 33.4508 38.1783 33.001C38.7934 32.3309 38.9678 31.8627 38.9678 30.8896C38.9678 30.1277 38.9402 30.0176 38.674 29.5219C38.5088 29.2189 38.3711 28.9252 38.3711 28.8609C38.3711 28.7141 39.032 28.1449 39.5553 27.8328C39.9408 27.6033 39.9684 27.6033 40.0602 27.7594C40.3998 28.3377 40.767 28.7141 41.2168 28.9436C41.6574 29.173 41.8043 29.2006 42.3643 29.173C42.9793 29.1455 43.0711 29.1088 44.4756 28.3285C45.2834 27.8787 46.082 27.383 46.2473 27.227C46.8072 26.7037 47.0734 25.9602 46.9633 25.2166C46.8898 24.7576 45.1732 21.6273 44.852 21.3703C44.5398 21.1133 44.0074 21.1592 43.6861 21.4713C43.2639 21.8936 43.3189 22.1781 44.0625 23.5C45.109 25.3451 45.2191 25.593 45.109 25.7766C44.9805 25.9785 42.5111 27.3555 42.2725 27.3555C42.1715 27.3555 42.043 27.3188 41.9879 27.282C41.8502 27.1902 34.6992 14.5314 34.6992 14.3754C34.6992 14.1918 34.9287 14.0357 36.2965 13.2738C37.3705 12.6771 37.6092 12.5762 37.7744 12.6496C37.8937 12.7047 38.2701 13.2738 38.7291 14.0816C39.1422 14.816 39.5645 15.5045 39.6746 15.6055C39.9775 15.8809 40.5742 15.8533 40.8863 15.5504C41.3178 15.1098 41.2352 14.7885 40.2988 13.1361C39.7848 12.2182 39.3441 11.5572 39.1146 11.3553C38.6557 10.9422 37.9029 10.7035 37.3246 10.7861C36.9391 10.8504 35.0297 11.8143 33.9557 12.4936C33.0652 13.0627 32.6613 14.1459 32.9918 15.073L33.1203 15.4219L32.3676 15.6514C31.9637 15.7799 31.3945 15.9268 31.11 15.991L30.5959 16.092L28.5855 15.3852C26.0061 14.4855 25.7307 14.4121 24.7393 14.4121C23.6928 14.4121 19.3049 14.8252 18.442 14.9996C17.6709 15.1648 16.8447 15.5229 16.5051 15.8533L16.248 16.092L15.6789 15.9359C15.3576 15.8533 14.8252 15.6973 14.4947 15.5963L13.8889 15.4127L14.0082 15.073C14.3846 14.0174 13.9072 12.9984 12.7047 12.2916C10.1986 10.8137 9.54688 10.5934 8.63809 10.9146ZM10.7127 13.2738C12.0621 14.0174 12.3008 14.1826 12.3008 14.3754C12.3008 14.5314 5.1498 27.1902 5.01211 27.282C4.95703 27.3188 4.83769 27.3555 4.7459 27.3555C4.54394 27.3555 2.08379 26.0244 1.91855 25.8225C1.83594 25.7215 1.82676 25.6205 1.89101 25.4369C2.07461 24.9688 8.93184 12.8975 9.10625 12.7322C9.20723 12.6496 9.32656 12.5762 9.37246 12.5762C9.41836 12.5762 10.0242 12.8883 10.7127 13.2738ZM27.998 17.1109C30.2012 17.9004 30.2563 17.9188 30.8896 17.8637C31.2477 17.8361 32.0922 17.6525 32.7715 17.4506C33.4508 17.2486 34.0383 17.1109 34.0658 17.1477C34.1852 17.267 38.9494 25.749 38.9861 25.8867C39.0045 25.9785 38.8117 26.1529 38.417 26.3916C38.0865 26.5936 37.6092 26.9699 37.3521 27.227L36.884 27.7043L34.6625 25.951C32.4043 24.1609 29.6687 22.1047 28.2918 21.1684C26.0703 19.6629 24.6475 19.3416 21.9395 19.7363C20.4248 19.9566 19.8373 19.9383 19.0754 19.6445C18.2951 19.3508 17.8086 18.8275 17.5791 18.0564C17.423 17.524 17.4873 17.3313 17.9279 17.1109C18.3869 16.8723 19.0203 16.7254 20.1402 16.6152C23.1053 16.3123 23.7203 16.2664 24.6934 16.2848L25.749 16.3123L27.998 17.1109ZM14.2652 17.4414C14.9721 17.6434 15.5688 17.8361 15.6055 17.8729C15.633 17.9188 15.7156 18.1482 15.7707 18.4053C16.193 20.0943 17.524 21.2969 19.3324 21.6182C20.3055 21.7926 20.5533 21.7926 22.068 21.5631C24.8127 21.15 25.492 21.3795 28.815 23.7938C31.1926 25.5195 36.425 29.6412 36.8932 30.1369C37.1777 30.449 37.2512 31.0824 37.0492 31.4771C36.7188 32.1105 35.8375 32.3217 35.2408 31.9178C35.0664 31.7984 34.3779 31.266 33.6986 30.7244C32.643 29.8891 32.4135 29.7422 32.1381 29.7422C31.624 29.7514 31.2109 30.1736 31.2109 30.6969C31.2109 31.0182 31.5047 31.3211 33.001 32.5236C34.0566 33.3682 34.3045 33.616 34.4055 33.9098C34.5523 34.3688 34.4238 34.8461 34.0566 35.2041C33.8088 35.4428 33.6986 35.4795 33.2396 35.4795H32.7164L31.1375 34.2127C29.3475 32.7898 29.173 32.7256 28.6223 33.2213C28.3744 33.4416 28.3193 33.5518 28.3193 33.8547C28.3193 34.3229 28.3744 34.3779 30.0818 35.7273C31.4955 36.8473 31.7617 37.1502 31.7617 37.701C31.7617 38.2977 31.1467 38.9219 30.55 38.9219C30.1277 38.9219 29.8891 38.7842 28.4846 37.6551C27.7227 37.0492 27.025 36.5076 26.9148 36.4525C26.1437 36.0395 25.29 36.9299 25.7307 37.6918C25.7949 37.802 26.1713 38.16 26.5752 38.4904C27.5482 39.2707 27.64 39.39 27.6951 39.8674C27.7777 40.6109 27.2453 41.2168 26.5018 41.2168C26.0611 41.2168 25.9234 41.1434 24.9963 40.409C24.2436 39.8215 24.2436 39.8215 24.1885 39.2982C24.0691 38.316 23.4082 37.2695 22.6371 36.8381C22.4627 36.7463 22.4627 36.7279 22.6646 36.2965C23.0869 35.3969 23.0777 34.3963 22.6463 33.5334C22.426 33.1111 21.8201 32.4594 21.4346 32.2482C21.2693 32.1564 21.2693 32.1289 21.5172 31.5873C22.0496 30.4031 21.765 29.017 20.8195 28.1266C20.177 27.5299 19.6629 27.3188 18.8184 27.3096C18.442 27.3096 17.9738 27.3463 17.7902 27.3922C17.4873 27.4564 17.4414 27.4473 17.4414 27.3004C17.4414 27.025 16.9365 26.2172 16.5602 25.8867C15.9635 25.3635 15.2934 25.1156 14.5039 25.1156C13.54 25.1156 13.0994 25.3359 11.493 26.6303L10.1436 27.7043L9.59277 27.1811C9.28984 26.8873 8.80332 26.5109 8.51875 26.3457C8.225 26.1713 7.98633 25.9877 7.98633 25.9418C7.98633 25.8684 8.8584 24.317 12.1355 18.5154C12.5854 17.726 12.9617 17.0742 12.9709 17.0742C12.9801 17.0742 13.5676 17.2395 14.2652 17.4414ZM15.0271 27.0709C15.2566 27.1811 15.4678 27.3646 15.5504 27.5299C15.7615 27.9338 15.7432 28.558 15.5045 28.8609C15.3025 29.1088 12.4201 31.468 11.7867 31.8994C11.1625 32.3217 10.2904 32.1197 9.95078 31.4771C9.76719 31.11 9.82227 30.4582 10.0609 30.1828C10.4006 29.8064 13.8889 27.0525 14.1275 26.9883C14.4947 26.8781 14.6049 26.8873 15.0271 27.0709ZM19.3783 29.3107C19.5436 29.4209 19.7363 29.6229 19.8006 29.7422C19.9842 30.1094 19.9475 30.7795 19.7271 31.0549C19.6262 31.1926 18.3594 32.2391 16.909 33.3865L14.2836 35.4795H13.7512C13.3014 35.4795 13.1912 35.4428 12.9434 35.2041C12.5762 34.8461 12.4477 34.3688 12.5945 33.9098C12.6955 33.5977 13.0443 33.2855 15.1465 31.5873C16.4867 30.5133 17.7627 29.5127 17.983 29.3658C18.4879 29.0354 18.9469 29.017 19.3783 29.3107ZM20.4707 33.8271C20.9113 34.0566 21.1133 34.3963 21.1133 34.9195C21.1133 35.2041 21.0582 35.4795 20.9664 35.608C20.7736 35.8834 17.2119 38.7291 16.9182 38.8393C16.1471 39.133 15.2383 38.5271 15.2383 37.7285C15.2383 37.1318 15.4678 36.8748 17.3771 35.3693C18.3961 34.5615 19.3141 33.8547 19.415 33.7996C19.6721 33.6527 20.1586 33.6619 20.4707 33.8271ZM21.8018 38.4996C22.325 38.8393 22.5086 39.6562 22.1781 40.152C21.967 40.4824 19.7914 42.2082 19.5068 42.2816C18.3686 42.5662 17.4598 41.1342 18.24 40.2805C18.5063 39.9775 20.4248 38.4721 20.6635 38.3711C20.948 38.2518 21.5172 38.316 21.8018 38.4996Z" fill="#161851"/>
<path d="M41.6482 17.882C40.9414 18.6164 41.7676 19.7363 42.6855 19.2957C43.0344 19.1305 43.2363 18.699 43.1629 18.3043C43.0344 17.6434 42.1256 17.3863 41.6482 17.882Z" fill="#161851"/>
<defs>
<linearGradient id="paint0_linear_0_126" x1="23.5" y1="9.36328" x2="23.5" y2="2.86289" gradientUnits="userSpaceOnUse">
<stop stop-color="#65B8E9"/>
<stop offset="0.508523" stop-color="#79A7F1"/>
<stop offset="1" stop-color="#8E94FC"/>
</linearGradient>
<linearGradient id="paint1_linear_0_126" x1="16.1528" y1="11.2739" x2="16.1528" y2="5.5985" gradientUnits="userSpaceOnUse">
<stop stop-color="#65B8E9"/>
<stop offset="0.508523" stop-color="#79A7F1"/>
<stop offset="1" stop-color="#8E94FC"/>
</linearGradient>
<linearGradient id="paint2_linear_0_126" x1="30.8408" y1="11.2739" x2="30.8408" y2="5.6033" gradientUnits="userSpaceOnUse">
<stop stop-color="#65B8E9"/>
<stop offset="0.508523" stop-color="#79A7F1"/>
<stop offset="1" stop-color="#8E94FC"/>
</linearGradient>
</defs>
</svg>
