<svg width="40" height="40" viewBox="0 0 40 40" fill="none" xmlns="http://www.w3.org/2000/svg">
<g clip-path="url(#clip0_0_133)">
<path d="M16.5703 0.109375C16.1641 0.335938 16.1797 0.148438 16.1719 6.65625V12.7344H14.6797C13.8125 12.7344 13.1328 12.7656 13.0391 12.8125C12.8203 12.9375 12.6328 13.3438 12.6875 13.6094C12.7344 13.8359 19.1484 22.7031 19.5078 23.0234C19.6328 23.1484 19.7969 23.2031 20 23.2031C20.2031 23.2031 20.3672 23.1484 20.4922 23.0234C20.8516 22.7031 27.2656 13.8281 27.3125 13.6016C27.3672 13.3438 27.1797 12.9375 26.9609 12.8125C26.8672 12.7656 26.1875 12.7344 25.3203 12.7344H23.8281V6.67969C23.8281 2.15625 23.8047 0.578125 23.7344 0.429688C23.5391 0.0078125 23.4844 0 19.9844 0C17.4531 0.0078125 16.7188 0.03125 16.5703 0.109375ZM22.2656 7.65625V13.75L22.4922 14L22.7188 14.2578L23.8516 14.2812L24.9844 14.3047L22.5078 17.6953C21.1484 19.5625 20.0234 21.0859 20 21.0859C19.9766 21.0859 18.8516 19.5625 17.4844 17.6953L15.0156 14.3047L16.1484 14.2812L17.2813 14.2578L17.5078 14L17.7344 13.75V7.65625V1.5625H20H22.2656V7.65625Z" fill="url(#paint0_linear_0_133)"/>
<path d="M2.34375 23.8203C1.57812 24.0547 0.765625 24.7578 0.445312 25.4531L0.273438 25.8203V31.9141V38.0078L0.453125 38.375C0.742188 38.9531 1.20312 39.4219 1.78125 39.7031L2.30469 39.9609H20H37.6953L38.2188 39.7031C38.7969 39.4219 39.25 38.9609 39.5469 38.375L39.7266 38.0078V31.9141V25.8203L39.5547 25.4453C39.3203 24.9375 38.6797 24.2891 38.1484 24.0156L37.6953 23.7891L33.1641 23.7656C29.7969 23.75 28.5859 23.7656 28.4609 23.8359C28.1797 23.9922 28.0469 24.375 28.0469 25.0703V25.7031H25.7031C24.125 25.7031 23.3047 25.7344 23.1719 25.7891C22.9141 25.9062 22.7109 26.3437 22.7734 26.6328C22.7969 26.7578 22.9062 26.9375 23.0156 27.0391L23.2188 27.2266L25.6328 27.25L28.0469 27.2734V28.6328V30H20H11.9531V28.6328V27.2734L14.3672 27.25L16.7812 27.2266L16.9844 27.0391C17.0938 26.9375 17.2031 26.7578 17.2266 26.6328C17.2891 26.3437 17.0859 25.9062 16.8281 25.7891C16.6953 25.7344 15.875 25.7031 14.2969 25.7031H11.9531V25.0859C11.9531 24.3906 11.8906 24.1562 11.6328 23.9141C11.4531 23.75 11.4219 23.75 7 23.7578C4.54688 23.7578 2.45312 23.7891 2.34375 23.8203ZM10.3906 28.2109V31.1094L10.6172 31.3359L10.8438 31.5625H20H29.1562L29.3828 31.3359L29.6094 31.1094V28.2031V25.3047L33.5078 25.3281C37.3281 25.3516 37.4141 25.3516 37.6328 25.5156C37.75 25.6016 37.9297 25.7969 38.0312 25.9375L38.2031 26.1953V31.8984C38.2031 37.5547 38.2031 37.6016 38.0391 37.8672C37.9453 38.0078 37.7422 38.1953 37.5703 38.2812C37.2734 38.4375 37.0234 38.4375 19.9844 38.4375H2.69531L2.39844 38.2578C2.23438 38.1562 2.03125 37.9766 1.95312 37.8437C1.80469 37.625 1.79688 37.4297 1.79688 31.9297C1.79688 25.8125 1.78125 26.0391 2.20312 25.6484C2.29688 25.5547 2.46875 25.4453 2.57812 25.3984C2.69531 25.3516 4.25 25.3203 6.58594 25.3203L10.3906 25.3125V28.2109Z" fill="#161851"/>
<path d="M19.6016 25.8203C19.0234 26.1328 19.1953 27.086 19.8516 27.2266C20.1406 27.2891 20.5781 27.086 20.6953 26.8281C21.0234 26.0938 20.3125 25.4375 19.6016 25.8203Z" fill="#161851"/>
</g>
<defs>
<linearGradient id="paint0_linear_0_133" x1="20" y1="23.2031" x2="20" y2="0" gradientUnits="userSpaceOnUse">
<stop stop-color="#65B9E9"/>
<stop offset="0.508523" stop-color="#79A7F2"/>
<stop offset="1" stop-color="#8E95FB"/>
</linearGradient>
<clipPath id="clip0_0_133">
<rect width="40" height="40" fill="white"/>
</clipPath>
</defs>
</svg>
