<svg width="139" height="28" viewBox="0 0 139 28" fill="none" xmlns="http://www.w3.org/2000/svg">
<path d="M6.944 13.196V20H10.864V13.196L17.472 0.456H13.104L8.932 9.388L4.732 0.456H0.308L6.944 13.196ZM34.7128 12.244C34.7128 7.344 31.2128 4.236 26.7328 4.236C22.2528 4.236 18.7528 7.344 18.7528 12.244C18.7528 17.116 22.1408 20.252 26.6208 20.252C31.1288 20.252 34.7128 17.116 34.7128 12.244ZM22.7288 12.244C22.7288 9.136 24.6048 7.652 26.6768 7.652C28.7488 7.652 30.6808 9.136 30.6808 12.244C30.6808 15.324 28.6928 16.836 26.6208 16.836C24.5208 16.836 22.7288 15.324 22.7288 12.244ZM52.2323 4.488H48.2843V13.028C48.2843 15.52 46.9403 16.864 44.8123 16.864C42.7403 16.864 41.3683 15.52 41.3683 13.028V4.488H37.4483V13.588C37.4483 17.844 40.0523 20.196 43.6643 20.196C45.5963 20.196 47.3043 19.356 48.2843 18.04V20H52.2323V4.488ZM60.02 12.272C60.02 9.276 61.42 8.38 63.744 8.38H64.78V4.264C62.624 4.264 61 5.3 60.02 6.896V4.488H56.1V20H60.02V12.272Z" fill="#1A0F43"/>
<path d="M74.0922 0.456V20H84.4522V16.892H78.0122V0.456H74.0922ZM101.924 12.244C101.924 7.344 98.4237 4.236 93.9437 4.236C89.4637 4.236 85.9637 7.344 85.9637 12.244C85.9637 17.116 89.3517 20.252 93.8317 20.252C98.3397 20.252 101.924 17.116 101.924 12.244ZM89.9397 12.244C89.9397 9.136 91.8157 7.652 93.8877 7.652C95.9597 7.652 97.8917 9.136 97.8917 12.244C97.8917 15.324 95.9037 16.836 93.8317 16.836C91.7317 16.836 89.9397 15.324 89.9397 12.244ZM103.791 12.188C103.791 17.032 106.927 20.252 110.875 20.252C113.311 20.252 115.075 19.048 115.999 17.704V20.112C115.999 22.996 114.319 24.228 112.163 24.228C110.203 24.228 108.747 23.304 108.355 21.904H104.463C104.855 25.46 107.907 27.644 112.275 27.644C117.371 27.644 119.947 24.312 119.947 20.112V4.488H115.999V6.7C115.075 5.356 113.311 4.236 110.875 4.236C106.927 4.236 103.791 7.344 103.791 12.188ZM115.999 12.244C115.999 15.184 114.039 16.808 111.883 16.808C109.783 16.808 107.795 15.128 107.795 12.188C107.795 9.248 109.783 7.68 111.883 7.68C114.039 7.68 115.999 9.304 115.999 12.244ZM138.756 12.244C138.756 7.344 135.256 4.236 130.776 4.236C126.296 4.236 122.796 7.344 122.796 12.244C122.796 17.116 126.184 20.252 130.664 20.252C135.172 20.252 138.756 17.116 138.756 12.244ZM126.772 12.244C126.772 9.136 128.648 7.652 130.72 7.652C132.792 7.652 134.724 9.136 134.724 12.244C134.724 15.324 132.736 16.836 130.664 16.836C128.564 16.836 126.772 15.324 126.772 12.244Z" fill="url(#paint0_linear_1_11)"/>
<defs>
<linearGradient id="paint0_linear_1_11" x1="140" y1="23" x2="80.5625" y2="16.0589" gradientUnits="userSpaceOnUse">
<stop stop-color="#89D1FF"/>
<stop offset="0.513731" stop-color="#7FA2F4"/>
<stop offset="1" stop-color="#9D9FFF"/>
</linearGradient>
</defs>
</svg>
