<svg width="43" height="43" viewBox="0 0 43 43" fill="none" xmlns="http://www.w3.org/2000/svg">
<path d="M13.6222 0.134377C13.0343 0.293949 12.732 0.453518 12.2953 0.856644C11.9845 1.14219 11.9258 1.25137 11.9258 1.51172C11.9258 1.67969 12.3625 3.35098 12.9 5.21543C13.4375 7.07988 13.8322 8.6168 13.7902 8.63359C13.7482 8.64199 13.5383 8.76797 13.3283 8.90235C12.8664 9.19629 12.4045 9.80098 12.2113 10.3637C12.0181 10.9348 12.0769 11.9258 12.3457 12.4717C12.5388 12.8664 13.0427 13.4459 13.4039 13.6895C13.5886 13.8154 13.5215 13.9162 10.1621 19.1736C8.28083 22.1215 6.58435 24.8678 6.39118 25.2793C5.96286 26.2031 5.59333 27.3117 5.40017 28.2775C5.17341 29.4029 5.1986 31.8301 5.44216 32.9807C6.2736 36.8104 8.76794 40.0605 12.1357 41.7066C13.2191 42.2273 13.9834 42.4961 15.2011 42.7648C16.0746 42.958 16.1502 42.958 21.5 42.958C26.8498 42.958 26.9254 42.958 27.7988 42.7648C29.0166 42.4961 29.7808 42.2273 30.8642 41.7066C33.2914 40.5225 35.1978 38.5992 36.4492 36.0713C37.4486 34.0473 37.8517 32.25 37.7677 30.1084C37.7006 28.2439 37.3394 26.791 36.5332 25.1533C36.3148 24.6914 34.6183 21.9535 32.7707 19.0645C29.4785 13.9162 29.4113 13.8154 29.5961 13.6895C29.6884 13.6223 29.9236 13.4123 30.1168 13.2191C31.0742 12.2533 31.175 10.6576 30.3603 9.54903C30.1084 9.21309 29.5037 8.72598 29.2097 8.63359C29.1593 8.6168 29.5625 7.07988 30.1 5.22383C30.6375 3.36777 31.0742 1.69649 31.0742 1.52012C31.0742 1.23457 31.0238 1.14219 30.6543 0.806252C30.058 0.277153 29.4533 0.0587921 28.5547 0.0503922C27.7232 0.041996 27.1857 0.209965 26.6146 0.638283C25.7412 1.31016 25.6152 1.37735 25.1197 1.41094C24.5654 1.45293 24.2547 1.32696 23.734 0.865044C23.5576 0.697075 23.1629 0.453518 22.8521 0.302345C22.3482 0.0671921 22.2222 0.041996 21.5 0.041996C20.5593 0.0503922 20.0638 0.226761 19.3248 0.831448C18.6949 1.33535 18.5017 1.42774 17.9894 1.42774C17.4939 1.42774 17.1916 1.30176 16.7297 0.890236C15.8394 0.100784 14.7308 -0.167965 13.6222 0.134377ZM15.3607 1.97364C15.5287 2.09121 15.873 2.34317 16.125 2.52793C16.7381 2.98145 17.3175 3.13262 18.1742 3.09063C18.9804 3.04863 19.5515 2.82188 20.2402 2.24239C21.0549 1.57051 21.8443 1.51172 22.533 2.06602C23.524 2.87227 24.0951 3.10743 25.0273 3.10743C25.9763 3.10743 26.3543 2.94785 27.5468 2.04082C27.9668 1.72168 28.5043 1.6125 28.983 1.75528C29.2349 1.83086 29.3105 1.88965 29.2769 1.99883C29.2517 2.07442 28.857 3.48536 28.3867 5.12305C27.9164 6.76075 27.5216 8.17168 27.4965 8.24727C27.4545 8.39004 27.0933 8.39844 21.4916 8.39844C18.2162 8.39844 15.5371 8.38164 15.5371 8.35645C15.5371 8.33965 15.1172 6.87832 14.6133 5.11465C14.1009 3.35098 13.6978 1.88965 13.7146 1.88125C13.9834 1.6125 14.924 1.6629 15.3607 1.97364ZM28.605 10.2125C28.9746 10.3889 29.2265 10.8004 29.2265 11.2539C29.2265 11.699 29.0334 12.0266 28.6386 12.2533C28.3447 12.4129 28.1935 12.4297 26.7238 12.4297C25.6572 12.4297 25.0441 12.4633 24.9013 12.5305C24.6578 12.6397 24.4394 12.9924 24.4394 13.2695C24.4394 13.5131 24.6578 13.9078 24.8341 13.9918C24.9181 14.0338 25.5816 14.0842 26.3123 14.1094L27.6476 14.1514L31.133 19.6104C33.0478 22.6086 34.7611 25.3549 34.9375 25.6992C35.3406 26.5055 35.7185 27.5637 35.9117 28.4707C36.13 29.4617 36.13 31.5865 35.9201 32.5859C35.4498 34.7779 34.4336 36.634 32.8463 38.2129C31.5613 39.4895 30.2847 40.2789 28.6386 40.7996C27.1437 41.2699 27.0261 41.2783 21.458 41.2783C16.7633 41.2783 16.2761 41.2615 15.5791 41.1188C14.1597 40.8248 12.8412 40.2789 11.6318 39.4895C10.8591 38.9771 9.37263 37.499 8.83513 36.6928C6.86989 33.7533 6.37438 30.4275 7.43259 27.2361C7.59216 26.7742 7.86931 26.0939 8.05407 25.7244C8.23044 25.3633 9.95212 22.6086 11.867 19.6104L15.3523 14.1514L16.6877 14.1094C17.4183 14.0842 18.0818 14.0338 18.1658 13.9918C18.3422 13.9078 18.5605 13.5131 18.5605 13.2779C18.5605 12.9924 18.3674 12.6732 18.1322 12.5473C17.9558 12.4549 17.5191 12.4297 16.2845 12.4297C14.8064 12.4297 14.6552 12.4129 14.3613 12.2533C14.1933 12.1609 13.9918 11.9678 13.9162 11.8418C13.723 11.5227 13.7314 10.96 13.9414 10.624C14.2941 10.0529 13.9246 10.0781 21.4832 10.0781C27.5888 10.0781 28.3531 10.0949 28.605 10.2125Z" fill="#161851"/>
<path d="M21.0884 12.5473C20.3578 12.9504 20.6685 14.1094 21.5 14.1094C21.9283 14.1094 22.3398 13.6979 22.3398 13.2779C22.3398 12.648 21.6427 12.2365 21.0884 12.5473Z" fill="#161851"/>
<path d="M21.0884 20.1059C20.7861 20.2738 20.6685 20.5594 20.6601 21.1305V21.6428L20.3074 21.7436C19.3415 22.0291 18.6445 22.6422 18.1994 23.5828C17.9474 24.1035 17.9306 24.2127 17.9306 25.0273C17.9306 25.8252 17.9558 25.9596 18.1658 26.3879C18.4597 26.9926 19.0308 27.4965 19.9546 27.9752L20.6601 28.3447V30.7551V33.1738H20.4501C20.1478 33.1738 19.4927 32.9387 19.0392 32.6615C18.5101 32.334 18.1238 32.334 17.7962 32.6615C17.4687 32.9891 17.4603 33.4762 17.7626 33.7869C18.2414 34.2656 19.6859 34.8535 20.383 34.8535H20.6601V35.4414C20.6601 35.9705 20.6853 36.0545 20.9037 36.298C21.1052 36.5248 21.206 36.5752 21.4999 36.5752C21.7939 36.5752 21.8947 36.5248 22.0962 36.298C22.3146 36.0545 22.3398 35.9705 22.3398 35.4078V34.7947L22.7261 34.6855C23.5492 34.4504 24.557 33.5937 24.9853 32.7539C25.5228 31.6873 25.6068 30.3016 25.1785 29.3693C24.7585 28.4791 23.9271 27.782 22.7429 27.3369L22.3398 27.1857V25.3129C22.3398 24.1371 22.3734 23.4316 22.4238 23.4316C22.4658 23.4316 22.7849 23.566 23.1208 23.734C23.8179 24.0783 24.0531 24.0783 24.4058 23.7256C24.6578 23.4736 24.683 22.9613 24.4478 22.659C24.2462 22.407 23.4652 21.9871 22.8269 21.7855L22.3398 21.6344V21.1557C22.3398 20.5678 22.2138 20.2654 21.9115 20.1059C21.6259 19.9631 21.3488 19.9631 21.0884 20.1059ZM20.6601 24.9434V26.4635L20.4753 26.3627C19.7951 26.0016 19.5683 25.6656 19.5683 25.0357C19.5683 24.5906 19.6691 24.2799 19.9294 23.9355C20.0806 23.734 20.4753 23.4316 20.6013 23.4316C20.6349 23.4316 20.6601 24.1119 20.6601 24.9434ZM23.1292 29.4113C23.8263 29.9908 23.9775 30.9986 23.4904 31.9225C23.2468 32.4012 22.6505 33.0059 22.4154 33.0059C22.3734 33.0059 22.3398 32.166 22.3398 30.9986V28.983L22.5749 29.067C22.7093 29.109 22.9529 29.2686 23.1292 29.4113Z" fill="url(#paint0_linear_0_138)"/>
<defs>
<linearGradient id="paint0_linear_0_138" x1="21.4972" y1="36.5752" x2="21.4972" y2="19.9988" gradientUnits="userSpaceOnUse">
<stop stop-color="#66B8E9"/>
<stop offset="0.510417" stop-color="#7BA5F3"/>
<stop offset="1" stop-color="#8D96FB"/>
</linearGradient>
</defs>
</svg>
