<svg width="65" height="45" viewBox="0 0 65 45" fill="none" xmlns="http://www.w3.org/2000/svg">
<path d="M51.875 44.715C47.2063 44.715 43.4813 43.076 40.7 39.798C38.018 36.52 36.677 32.4473 36.677 27.58C36.677 22.0173 38.3657 16.9017 41.743 12.233C45.1203 7.56433 49.2923 3.591 54.259 0.312998L56.792 3.44199C51.9247 6.91866 48.15 10.7927 45.468 15.064C42.786 19.236 41.445 22.9113 41.445 26.09C41.445 28.0767 41.8423 29.666 42.637 30.858C43.531 32.05 44.276 32.646 44.872 32.646C45.468 32.646 45.9647 32.2487 46.362 31.454C46.7593 30.6593 47.256 29.7157 47.852 28.623C48.448 27.5303 49.342 26.5867 50.534 25.792C51.726 24.9973 53.365 24.6 55.451 24.6C58.6297 24.6 60.9143 25.5437 62.305 27.431C63.6957 29.219 64.391 31.2553 64.391 33.54C64.391 36.6193 63.2487 39.2517 60.964 41.437C58.7787 43.6223 55.749 44.715 51.875 44.715ZM15.221 44.715C10.5523 44.715 6.82733 43.076 4.046 39.798C1.364 36.52 0.0230001 32.4473 0.0230001 27.58C0.0230001 22.0173 1.71167 16.9017 5.089 12.233C8.46633 7.56433 12.6383 3.591 17.605 0.312998L20.138 3.44199C15.2707 6.91866 11.496 10.7927 8.814 15.064C6.132 19.236 4.791 22.9113 4.791 26.09C4.791 28.0767 5.18833 29.666 5.983 30.858C6.877 32.05 7.622 32.646 8.218 32.646C8.814 32.646 9.31067 32.2487 9.708 31.454C10.1053 30.6593 10.602 29.7157 11.198 28.623C11.794 27.5303 12.688 26.5867 13.88 25.792C15.072 24.9973 16.711 24.6 18.797 24.6C21.9757 24.6 24.2603 25.5437 25.651 27.431C27.0417 29.219 27.737 31.2553 27.737 33.54C27.737 36.6193 26.5947 39.2517 24.31 41.437C22.1247 43.6223 19.095 44.715 15.221 44.715Z" fill="url(#paint0_linear_0_163)"/>
<defs>
<linearGradient id="paint0_linear_0_163" x1="37" y1="-7" x2="37" y2="43.5" gradientUnits="userSpaceOnUse">
<stop stop-color="#8E95FB"/>
<stop offset="0.503314" stop-color="#7AA6F2"/>
<stop offset="1" stop-color="#65B9E9"/>
</linearGradient>
</defs>
</svg>
