<svg width="43" height="43" viewBox="0 0 43 43" fill="none" xmlns="http://www.w3.org/2000/svg">
<path d="M20.4754 0.0839863C18.5605 0.428322 16.8893 1.68809 16.0494 3.40137C15.6043 4.3168 15.4279 5.06426 15.4279 6.08887C15.4363 7.13867 15.6127 7.92813 16.041 8.78477C16.3014 9.28867 16.3518 9.45664 16.2678 9.50703C15.9402 9.6834 15.176 10.3889 14.8484 10.8172C14.3361 11.4639 14.0002 12.0854 13.7146 12.8916C13.4879 13.5635 13.4795 13.5803 13.4543 16.0914C13.4291 18.5521 13.4291 18.6361 13.6139 19.0561C13.8574 19.6271 14.4873 20.1982 15.0584 20.3662C15.3523 20.4502 15.8646 20.4922 16.7381 20.4922H17.9894L18.275 20.2066C18.4598 20.0219 18.5605 19.8371 18.5605 19.7027C18.5605 19.4088 18.3506 19.0057 18.149 18.8965C18.0566 18.8545 17.4436 18.8125 16.7717 18.8125C15.6715 18.8125 15.5371 18.7957 15.3355 18.6361L15.1172 18.4682V16.3014C15.1172 13.933 15.1676 13.5803 15.6211 12.6816C15.9066 12.1189 16.8053 11.1111 17.242 10.8844L17.5191 10.7248L17.9391 11.0272C19.7111 12.3037 22.0963 12.5389 24.0111 11.6318C24.3555 11.4639 24.8258 11.1951 25.0609 11.0272L25.4809 10.7248L25.758 10.8844C26.1779 11.1027 27.043 12.0686 27.3537 12.6397C27.824 13.5383 27.8828 13.9414 27.8828 16.3182V18.4682L27.6644 18.6361C27.4629 18.7957 27.3285 18.8125 26.2031 18.8125C25.0861 18.8125 24.9434 18.8293 24.7502 18.9805C24.3135 19.3248 24.3723 20.0639 24.851 20.3494C25.1785 20.5426 27.3117 20.551 27.9416 20.3662C28.5127 20.1982 29.1426 19.6271 29.3861 19.0561C29.5709 18.6361 29.5709 18.5521 29.5457 16.0914C29.5205 13.5803 29.5121 13.5635 29.2853 12.8916C28.9914 12.0434 28.6555 11.4471 28.0928 10.75C27.7568 10.3301 27.0178 9.6666 26.6398 9.43985C26.623 9.43145 26.7238 9.22149 26.8666 8.97793C27.4293 7.96172 27.698 6.58438 27.5469 5.41699C27.2361 2.94785 25.5984 0.999416 23.2217 0.260353C22.5582 0.0503922 21.1305 -0.0419903 20.4754 0.0839863ZM22.491 1.80567C25.3129 2.46914 26.7154 5.55977 25.3885 8.18848C25.0693 8.80996 24.0951 9.74219 23.4316 10.0529C21.668 10.8844 19.7867 10.5652 18.4262 9.20469C17.4939 8.28086 17.0992 7.33184 17.116 6.04688C17.1328 3.2418 19.7699 1.16739 22.491 1.80567Z" fill="url(#paint0_linear_0_110)"/>
<path d="M4.61914 9.64981C3.56934 9.99414 2.78828 10.8508 2.51953 11.9342C2.39355 12.4633 1.00781 24.6662 1.00781 25.2625C1.00781 25.8924 1.25977 26.8834 1.57891 27.5133C1.99883 28.3363 2.52793 28.9494 4.13203 30.4527C5.84531 32.0484 6.52559 32.8043 6.91191 33.5518C7.15547 34.0221 7.17227 34.1229 7.19746 35.1055L7.23106 36.1553L6.70195 36.4072C6.10566 36.6928 5.69414 37.1631 5.54297 37.7258C5.48418 37.9357 5.45898 38.7 5.47578 39.7582C5.50098 41.6395 5.55137 41.8242 6.14766 42.3785C6.79434 42.9916 6.4332 42.958 12.2113 42.9832C18.1574 43.0084 17.9475 43.0252 18.6529 42.3281C19.2324 41.7486 19.3164 41.3875 19.3164 39.565C19.3164 37.9273 19.266 37.6502 18.8713 37.0623C18.6613 36.7516 18.4766 36.6004 18.0398 36.382L17.4688 36.0965V32.5943C17.4688 28.5463 17.4436 28.3867 16.7213 26.917C16.0998 25.6656 15.3691 24.767 13.2779 22.659C10.9936 20.3662 10.8676 20.2822 9.55742 20.2822C8.92754 20.2822 8.73438 20.257 8.73438 20.173C8.73438 19.1484 8.37324 12.3457 8.30606 12.0098C8.10449 11.0439 7.5418 10.2881 6.70195 9.85977C6.34082 9.675 6.12246 9.62461 5.54297 9.60781C5.14824 9.59101 4.73672 9.60781 4.61914 9.64981ZM6.21484 11.5479C6.68516 12.0014 6.70195 12.1189 6.91191 16.9061L7.10508 21.3404L6.80274 21.9367C6.53399 22.491 6.50879 22.6002 6.50879 23.2553C6.51719 24.4814 6.62637 24.641 9.01992 27.0262C11.2035 29.2098 11.2119 29.2182 11.7578 28.9326C12.0686 28.773 12.1777 28.5715 12.1777 28.1684C12.1777 27.8744 12.0686 27.7484 10.2125 25.8756C8.33125 23.9775 8.24727 23.8768 8.18848 23.4988C8.0877 22.8605 8.37324 22.3146 8.96113 22.0123C9.24668 21.8695 9.91856 21.9031 10.2125 22.0795C10.666 22.3566 13.807 25.548 14.3865 26.3291C14.6973 26.7406 15.0836 27.3453 15.2432 27.6729C15.7723 28.7563 15.7891 28.8906 15.7891 32.6867V36.1133H12.3457H8.90235V35.1811C8.90235 34.0725 8.75957 33.4342 8.33965 32.6699C7.86934 31.8049 7.34863 31.217 5.42539 29.3525C3.14941 27.1605 2.81348 26.6818 2.72109 25.4473C2.6707 24.8762 4.03965 12.648 4.19922 12.1273C4.2832 11.8754 4.71152 11.4051 4.95508 11.3043C5.02227 11.2791 5.28262 11.2707 5.52617 11.2875C5.87891 11.3043 6.02168 11.3631 6.21484 11.5479ZM17.4184 37.9693L17.6367 38.1373V39.565C17.6367 40.8752 17.6199 41.0012 17.4688 41.1523C17.3008 41.3203 17.1916 41.3203 12.3877 41.3203C7.58379 41.3203 7.47461 41.3203 7.30664 41.1523C7.15547 41.0012 7.13867 40.8752 7.13867 39.5734C7.13867 38.8008 7.17227 38.1289 7.20586 38.0785C7.38223 37.8098 7.61738 37.8014 12.3961 37.793C17.1244 37.793 17.2 37.793 17.4184 37.9693Z" fill="#161851"/>
<path d="M36.7852 9.64981C35.7186 10.0025 34.9123 10.9012 34.6855 11.9846C34.6268 12.2785 34.2656 19.2828 34.2656 20.1814C34.2656 20.2486 34.0137 20.2822 33.4426 20.2822C32.124 20.2822 32.0064 20.3578 29.6465 22.743C27.5217 24.8846 26.8582 25.716 26.2367 27.001C25.5564 28.4035 25.5313 28.5883 25.5313 32.5943V36.0965L24.9686 36.382C24.5234 36.6004 24.3387 36.7516 24.1287 37.0623C23.734 37.6502 23.6836 37.9273 23.6836 39.565C23.6836 41.3875 23.7676 41.7486 24.3471 42.3281C25.0525 43.0252 24.8426 43.0084 30.7887 42.9832C36.5668 42.958 36.2057 42.9916 36.8523 42.3785C37.4486 41.8242 37.499 41.6395 37.5242 39.7414C37.5494 38.3137 37.5326 37.9693 37.4066 37.6082C37.2303 37.0791 36.718 36.5416 36.1637 36.3148L35.7605 36.1553L35.7941 35.1055C35.8193 34.1229 35.8445 34.0221 36.0881 33.5518C36.4828 32.7875 37.1295 32.0736 38.784 30.5367C40.4049 29.0418 41.0684 28.2607 41.4883 27.3705C41.7822 26.7322 41.9922 25.8504 41.9922 25.2037C41.9922 24.6578 40.598 12.4549 40.4805 11.9342C40.2621 11.0355 39.6658 10.2629 38.868 9.85977C38.5068 9.675 38.2885 9.62461 37.709 9.60781C37.3143 9.59101 36.9027 9.60781 36.7852 9.64981ZM38.4732 11.6654C38.6412 11.8502 38.8008 12.0938 38.826 12.2029C38.8512 12.3037 39.2039 15.2012 39.5986 18.6445C40.1109 23.0621 40.3125 25.0609 40.2873 25.4473C40.1865 26.6734 39.8254 27.1857 37.5242 29.4113C35.5842 31.2842 35.1391 31.7881 34.6604 32.6783C34.2404 33.4342 34.0977 34.0809 34.0977 35.1811V36.1133H30.6543H27.2109V32.6867C27.2109 28.8906 27.2277 28.7563 27.7568 27.6729C27.9164 27.3453 28.3027 26.7406 28.6135 26.3291C29.1846 25.5648 32.334 22.3566 32.7959 22.0711C33.0814 21.9031 33.7533 21.8695 34.0389 22.0123C34.6184 22.3146 34.9123 22.9025 34.8031 23.5492C34.7527 23.86 34.5596 24.0867 32.7875 25.8756C30.9314 27.7484 30.8223 27.8744 30.8223 28.1684C30.8223 28.5715 30.9314 28.773 31.2422 28.9326C31.7881 29.2182 31.7965 29.2098 33.9801 27.0262C36.3736 24.641 36.4828 24.4814 36.4912 23.2553C36.4912 22.6002 36.466 22.491 36.1973 21.9367L35.8949 21.3404L36.0881 16.948C36.1889 14.5293 36.3148 12.4129 36.3652 12.2449C36.466 11.8922 36.8104 11.4387 37.0707 11.3295C37.1715 11.2875 37.457 11.2707 37.709 11.2875C38.1205 11.3127 38.1877 11.3463 38.4732 11.6654ZM35.5506 37.8854C35.6514 37.9441 35.7605 38.0281 35.7941 38.0785C35.8277 38.1289 35.8613 38.8008 35.8613 39.5734C35.8613 40.8752 35.8445 41.0012 35.6934 41.1523C35.5254 41.3203 35.4162 41.3203 30.6123 41.3203C25.8084 41.3203 25.6992 41.3203 25.5313 41.1523C25.3801 41.0012 25.3633 40.8752 25.3633 39.565V38.1373L25.5816 37.9693C25.8 37.793 25.8756 37.793 30.5871 37.793C34.0305 37.793 35.4162 37.8182 35.5506 37.8854Z" fill="#161851"/>
<path d="M21.0885 18.9301C20.8365 19.0644 20.6686 19.3668 20.6602 19.6691C20.6602 20.0051 21.0465 20.3998 21.4328 20.467C21.71 20.509 21.7771 20.4838 22.0459 20.215C22.2307 20.0302 22.3398 19.8371 22.3398 19.7027C22.3398 19.0308 21.668 18.6109 21.0885 18.9301Z" fill="#67B6EA"/>
<defs>
<linearGradient id="paint0_linear_0_110" x1="21.5" y1="20.4997" x2="21.5" y2="0.0267773" gradientUnits="userSpaceOnUse">
<stop stop-color="#D8D9FF"/>
<stop offset="0.0001" stop-color="#65B8E9"/>
<stop offset="0.513731" stop-color="#7BA5F3"/>
<stop offset="1" stop-color="#8E95FB"/>
</linearGradient>
</defs>
</svg>
