<svg width="19" height="19" viewBox="0 0 19 19" fill="none" xmlns="http://www.w3.org/2000/svg">
<g opacity="0.75" clip-path="url(#clip0_0_230)">
<path d="M19 3.60762C18.301 3.91795 17.5497 4.12695 16.7612 4.22116C17.5663 3.73904 18.1846 2.97508 18.4751 2.06466C17.7222 2.51116 16.8878 2.83575 15.9996 3.0107C15.2895 2.25308 14.2753 1.77966 13.1543 1.77966C10.6376 1.77966 8.78829 4.12775 9.35671 6.56529C6.118 6.403 3.24583 4.85133 1.32288 2.49295C0.301625 4.24491 0.79325 6.53679 2.52858 7.69737C1.8905 7.67679 1.28883 7.50183 0.763958 7.2097C0.721208 9.0155 2.01558 10.7049 3.89025 11.081C3.34163 11.2298 2.74075 11.2646 2.12958 11.1475C2.62517 12.696 4.06442 13.8225 5.77125 13.8542C4.1325 15.139 2.06783 15.713 0 15.4692C1.72504 16.5751 3.77467 17.2203 5.9755 17.2203C13.2129 17.2203 17.3019 11.1079 17.0549 5.62558C17.8165 5.07537 18.4775 4.389 19 3.60762Z" fill="white"/>
</g>
<defs>
<clipPath id="clip0_0_230">
<rect width="19" height="19" fill="white"/>
</clipPath>
</defs>
</svg>
